<?xml version="1.0" standalone="no"?><!DOCTYPE svg PUBLIC "-//W3C//DTD SVG 1.1//EN" "http://www.w3.org/Graphics/SVG/1.1/DTD/svg11.dtd"><svg t="1593786725556" class="icon" viewBox="0 0 1024 1024" version="1.1" xmlns="http://www.w3.org/2000/svg" p-id="4291" xmlns:xlink="http://www.w3.org/1999/xlink" width="200" height="200"><defs><style type="text/css"></style></defs><path d="M859.3 596.4H279.5c-20.8 0-38.5-15-42-35.5l-43.9-255.7c-2.1-12.4 1.3-25.1 9.4-34.7 8.1-9.6 20.1-15.2 32.6-15.2h671.7c12.7 0 24.7 5.7 32.9 15.4 8.1 9.8 11.4 22.7 9 35.1l-48 255.7c-3.8 20.4-21.3 34.9-41.9 34.9z m-543.8-85.3h508.4l32-170.4H286.2l29.3 170.4z" fill="#00A2FF" p-id="4292"></path><path d="M846.4 848.6c0 35.4-28.6 64-64 64-35.3 0-64-28.6-64-64s28.7-64 64-64c35.4 0 64 28.6 64 64z m-419.1 0c0 35.4-28.7 64-64 64-35.4 0-64-28.6-64-64s28.6-64 64-64 64 28.6 64 64z m399.9-81.5H308.9c-20.8 0-38.6-15-42.1-35.5l-89.1-518.9h-81c-23.7 0-42.7-19-42.7-42.6s19.1-42.7 42.7-42.7h117c20.8 0 38.5 15 42 35.5l89.1 518.9h482.4c23.6 0 42.7 19.1 42.7 42.7s-19.1 42.6-42.7 42.6z" fill="#666666" p-id="4293"></path></svg>